# xmcd
#
# Track frame offsets:
#	187
#	20655
#	41657
#	65415
#
# Disc length: 1105 seconds
#
# Revision: 1
# Processed by: cddbd v1.4PL0 Copyright (c) Steve Scherf et al.
# Submitted via: EasyCDDAExtractor 5.0.7
#
DISCID=30044f04
DTITLE=C and C Music Factory Featuring A.S.K.M.E. And Vic Black - I'll Always Be
DTITLE=Around
DYEAR=1900
DGENRE=
TTITLE0=I'll Always Be Around(The Radio Mix)
TTITLE1=I'll Always Be Around(Pop Radio-No Reggae Or Scratches)
TTITLE2=I'll Always Be Around(The Radio Mix-With Reggae Ending)
TTITLE3=I'll Always Be Around(Alternate Radio Mix)
EXTD=
EXTT0=
EXTT1=
EXTT2=
EXTT3=
PLAYORDER=
